<svg version="1.2" xmlns="http://www.w3.org/2000/svg" viewBox="0 0 1000 1000" width="1000" height="1000">
	<title>SpaceDesignIcon (2)-svg</title>
	<style>
		.s0 { fill: none;stroke: #000000;stroke-miterlimit:10 } 
		.s1 { fill: #000000;stroke: #000000;stroke-miterlimit:10 } 
		.s2 { fill: #ff0000 } 
	</style>
	<g id="Livello_1">
	</g>
	<g id="Livello_2">
		<path class="s0" d=""/>
		<path class="s1" d="m853.8 225.7c-13.7 36.7-38.8 90.5-84.8 144.8-53.5 63.4-111.8 99.5-148.8 118.6-7 34.8-19.8 60.6-30.5 78-31.1 50-74 75.4-108.2 95.6-30.8 18.2-58.4 29.3-77.5 35.9 3.7-2.3 48.1-30.6 49.3-81.6 0.7-29.4-13.3-50.8-19-58.5 79-39.4 142.5-79 190-111.5 103.6-70.9 143.3-116.5 170.1-156.4 9.3-13.8 16.3-25.8 20.9-34.1-31.8 4.4-78.8 13.9-131.5 37-63.7 27.9-105.4 62.3-143.2 93.5-28.7 23.6-66.6 58-106.3 104.7 0.9 1.4 2.6 3.4 5.2 5.1 8.7 5.7 25.7 6.5 91.8-36.4 13.8-9 32.9-21.8 55-38.5-15.9 18.9-34.9 39-57.6 59-51.6 45.6-103.6 74-144.8 91.9q17.5-17.7 35-35.4c-9.5-8.6-28-22.9-55-29.3-51.8-12.2-93.5 14.7-101.6 20.1 19.8-26.2 61.4-73.5 130.4-106.3 54.4-25.9 103.9-32.4 134.5-33.9 28.5-30.1 74.4-71.6 140.2-105.8 74.5-38.7 142.8-51.7 186.4-56.5z"/>
		<path class="s2" d="m406 538.9l-35.9-23.3-121.7 118.3 37-10.8-139.2 137.1 141.7-105.7-19.5 27.7 174.1-89.3-15.9-29.3-63.2 23.1z"/>
	</g>
</svg>