<svg xmlns="http://www.w3.org/2000/svg" version="1.1" xmlns:xlink="http://www.w3.org/1999/xlink" width="1000" height="1000"><g clip-path="url(#SvgjsClipPath1253)"><rect width="1000" height="1000" fill="#ffffff"></rect><g transform="matrix(0.9,0,0,0.9,50,50)"><svg xmlns="http://www.w3.org/2000/svg" version="1.1" xmlns:xlink="http://www.w3.org/1999/xlink" width="1000" height="1000"><svg version="1.1" xmlns="http://www.w3.org/2000/svg" xmlns:xlink="http://www.w3.org/1999/xlink" x="0px" y="0px" viewBox="0 0 1000 1000" style="enable-background:new 0 0 1000 1000;" xml:space="preserve">
<style type="text/css">
	.st0{fill:#FFFFFF;}
	.st1{fill:none;stroke:#000000;stroke-miterlimit:10;}
	.st2{stroke:#000000;stroke-miterlimit:10;}
	.st3{fill:#FF0000;}
</style>
<g id="Livello_1">
	<rect class="st0" width="1000" height="1000"></rect>
</g>
<g id="Livello_2">
	<path class="st1" d="M0,0L0,0L0,0z"></path>
	<path class="st2" d="M853.77,225.73c-13.7,36.68-38.76,90.46-84.72,144.8c-53.57,63.34-111.86,99.45-148.9,118.61
		c-6.97,34.77-19.7,60.56-30.49,77.93c-31.07,50.06-74,75.44-108.15,95.62c-30.82,18.22-58.42,29.3-77.53,35.94
		c3.73-2.29,48.08-30.62,49.29-81.64c0.7-29.4-13.3-50.76-19-58.53c79.02-39.31,142.54-78.94,189.98-111.42
		c103.65-70.95,143.33-116.49,170.18-156.44c9.3-13.84,16.26-25.81,20.82-34.05c-31.76,4.37-78.74,13.89-131.45,36.97
		c-63.66,27.88-105.43,62.29-143.25,93.45c-28.67,23.62-66.53,58.02-106.29,104.75c0.95,1.34,2.64,3.4,5.25,5.12
		c8.65,5.68,25.72,6.44,91.8-36.44c13.81-8.97,32.84-21.83,54.94-38.51c-15.83,18.92-34.83,39.05-57.51,59.05
		c-51.62,45.53-103.68,73.99-144.8,91.91c11.64-11.81,23.28-23.62,34.92-35.43c-9.51-8.65-27.97-22.92-54.94-29.27
		c-51.82-12.2-93.57,14.6-101.66,20.02c19.86-26.14,61.41-73.45,130.42-106.29c54.38-25.88,103.88-32.33,134.53-33.89
		c28.5-30.11,74.43-71.59,140.17-105.77C741.88,243.47,810.24,230.52,853.77,225.73z"></path>
	<polygon class="st3" points="406.04,538.94 370.1,515.57 248.41,633.93 285.37,623.14 146.23,760.24 287.94,654.46 268.43,682.19 
		442.49,592.85 426.58,563.58 363.42,586.69 	"></polygon>
</g>
</svg></svg></g></g><defs><clipPath id="SvgjsClipPath1253"><rect width="1000" height="1000" x="0" y="0" rx="500" ry="500"></rect></clipPath></defs></svg>